<?xml version="1.0" standalone="no"?>
<!DOCTYPE svg PUBLIC "-//W3C//DTD SVG 20010904//EN"
 "http://www.w3.org/TR/2001/REC-SVG-20010904/DTD/svg10.dtd">
<svg version="1.0" xmlns="http://www.w3.org/2000/svg"
 width="1414.000000pt" height="1414.000000pt" viewBox="0 0 1414.000000 1414.000000"
 preserveAspectRatio="xMidYMid meet">

<g transform="translate(0.000000,1414.000000) scale(0.100000,-0.100000)"
fill="#000000" stroke="none">
<path d="M8414 12351 c-32 -21 -69 -49 -81 -63 -38 -41 -143 -210 -143 -230 0
-10 -11 -45 -25 -78 -16 -38 -25 -79 -25 -112 0 -34 -8 -69 -23 -98 -21 -44
-22 -56 -25 -412 -3 -370 3 -450 38 -543 5 -14 10 -68 10 -119 0 -69 5 -108
21 -152 12 -32 24 -93 28 -134 4 -41 17 -97 29 -124 12 -27 22 -62 22 -78 0
-16 11 -55 25 -88 14 -33 25 -76 25 -96 0 -20 11 -58 25 -86 24 -48 34 -108
17 -108 -4 0 -26 18 -47 41 -22 22 -60 55 -85 71 -25 17 -86 70 -136 117 -110
104 -166 150 -259 215 -38 27 -86 63 -105 80 -43 38 -278 195 -339 225 -24 13
-73 42 -110 65 -74 48 -306 166 -325 166 -6 0 -30 9 -51 20 -61 32 -178 80
-193 80 -8 0 -47 14 -89 30 -41 17 -92 30 -113 30 -22 0 -74 11 -116 25 -68
22 -94 25 -224 25 -122 0 -157 -3 -206 -20 -156 -54 -207 -96 -258 -214 -33
-78 -36 -92 -36 -185 0 -85 4 -109 25 -157 14 -31 25 -68 25 -82 0 -59 246
-513 305 -562 9 -8 35 -40 56 -72 22 -32 43 -58 47 -58 4 0 18 -17 31 -38 30
-45 420 -443 475 -483 21 -16 66 -53 100 -83 33 -30 86 -75 116 -100 69 -56
557 -386 572 -386 6 0 38 -17 72 -38 34 -22 99 -58 146 -81 47 -24 97 -49 112
-57 15 -8 49 -22 75 -30 27 -8 60 -25 76 -39 l28 -25 -24 -37 c-14 -21 -32
-45 -42 -53 -9 -8 -34 -39 -55 -70 -41 -60 -480 -500 -498 -500 -7 0 -45 -31
-84 -68 -40 -38 -107 -91 -148 -119 -42 -28 -82 -59 -90 -68 -20 -24 -414
-287 -470 -313 -25 -12 -81 -42 -125 -67 -44 -24 -152 -81 -240 -126 -88 -44
-171 -87 -185 -95 -14 -7 -34 -14 -45 -14 -11 0 -38 -11 -60 -25 -22 -13 -49
-25 -59 -25 -10 0 -42 -11 -70 -24 -56 -26 -125 -50 -199 -72 -27 -7 -63 -22
-81 -34 -20 -12 -51 -20 -75 -20 -25 0 -62 -10 -91 -25 -32 -16 -66 -25 -97
-25 -29 0 -68 -9 -98 -24 -29 -13 -82 -26 -123 -30 -40 -4 -98 -17 -130 -28
-42 -15 -100 -23 -222 -31 -274 -17 -702 -12 -838 9 -23 3 -55 25 -103 69 -38
35 -79 67 -92 71 -12 3 -34 15 -49 26 -15 10 -66 34 -113 53 l-86 35 -206 0
c-198 0 -207 -1 -252 -24 -25 -14 -77 -39 -115 -56 -57 -25 -90 -50 -178 -138
-90 -88 -116 -121 -149 -186 -21 -43 -39 -86 -39 -95 0 -10 -11 -51 -25 -91
-21 -62 -25 -92 -25 -189 0 -99 4 -128 26 -196 37 -111 91 -222 133 -274 60
-73 169 -174 234 -216 15 -9 27 -26 27 -36 0 -10 -20 -50 -44 -88 -25 -38 -54
-88 -67 -112 -12 -24 -42 -75 -67 -114 -44 -67 -97 -159 -168 -293 -19 -35
-47 -82 -63 -105 -15 -23 -57 -96 -91 -162 -35 -66 -80 -151 -101 -190 -39
-72 -431 -856 -455 -910 -7 -16 -38 -83 -68 -148 -31 -64 -56 -123 -56 -130 0
-6 -22 -56 -49 -109 -27 -54 -52 -112 -56 -130 -4 -18 -11 -38 -16 -44 -17
-21 -89 -175 -89 -190 0 -8 -11 -36 -25 -62 -14 -26 -25 -53 -25 -60 0 -7 -11
-35 -25 -62 -14 -27 -25 -56 -25 -65 0 -9 -11 -42 -25 -75 -14 -33 -25 -72
-25 -87 0 -15 -11 -55 -25 -88 -33 -81 -33 -148 0 -180 28 -29 51 -31 85 -9
14 9 145 134 292 278 356 348 501 485 547 515 35 24 86 68 260 227 36 33 78
68 93 77 15 9 51 37 80 62 125 107 147 124 218 172 42 28 82 58 90 68 8 10 53
43 100 75 47 32 92 65 100 75 19 23 749 510 778 519 12 4 69 38 126 76 57 37
123 77 147 89 24 11 72 37 106 58 34 21 88 53 120 72 85 50 826 421 841 421 7
0 58 23 114 50 55 28 108 50 117 50 9 0 34 11 56 25 22 13 48 25 58 25 10 0
40 11 67 25 27 14 55 25 63 25 7 0 36 11 62 25 27 13 62 27 79 31 16 3 49 17
74 30 25 13 54 24 64 24 11 0 39 9 62 20 24 10 63 24 87 29 24 6 63 19 86 31
23 11 49 20 58 20 9 0 38 11 65 25 27 14 64 25 82 25 18 0 57 11 86 25 30 14
67 25 83 25 17 0 51 11 77 25 26 14 60 25 77 25 16 0 50 10 75 21 25 12 77 25
117 29 40 4 89 17 113 29 25 13 59 21 90 21 30 0 70 9 103 24 30 13 79 27 108
31 30 4 90 18 133 31 44 13 99 24 122 24 24 0 78 11 121 24 53 16 112 26 183
29 66 3 122 11 150 22 32 13 90 20 205 26 127 5 172 11 220 29 l60 22 820 0
c610 0 828 -2 850 -11 58 -24 182 -41 291 -41 87 0 124 -5 170 -21 39 -14 100
-23 179 -29 72 -4 138 -14 165 -25 25 -9 88 -21 140 -25 61 -5 108 -15 132
-28 22 -11 70 -23 115 -27 45 -4 103 -17 135 -31 32 -13 74 -24 95 -24 21 0
74 -11 118 -25 44 -14 92 -25 107 -25 14 0 50 -11 80 -25 29 -14 68 -25 86
-25 18 0 59 -11 92 -25 33 -14 66 -25 73 -25 8 0 40 -11 71 -25 31 -14 73 -25
92 -25 20 0 57 -11 83 -24 49 -25 114 -49 196 -72 28 -8 68 -23 90 -33 22 -11
60 -26 85 -34 25 -8 59 -20 75 -25 64 -24 132 -44 177 -55 43 -10 51 -9 75 10
23 17 28 28 28 64 -1 67 -75 166 -257 345 -84 83 -164 159 -178 168 -13 8 -49
40 -80 69 -30 29 -93 80 -140 112 -47 32 -92 66 -100 75 -8 10 -53 43 -100 75
-47 31 -98 70 -115 85 -40 38 -605 415 -675 450 -64 32 -101 67 -79 74 8 2 43
14 78 25 36 12 87 21 115 21 27 0 88 12 135 28 73 23 94 36 147 85 68 63 77
80 92 181 10 64 9 74 -14 127 -13 32 -24 65 -24 72 0 40 -170 318 -264 431
-67 80 -415 433 -491 497 -38 32 -108 85 -155 118 -47 32 -92 66 -100 76 -20
24 -233 166 -300 200 -30 15 -80 44 -110 65 -55 37 -172 102 -265 148 -27 13
-68 37 -90 52 -46 31 -178 95 -215 103 -14 4 -44 20 -67 37 -39 28 -41 33 -33
62 5 17 16 40 23 52 24 36 77 176 77 202 0 14 11 51 25 84 23 55 25 72 25 213
0 112 4 166 15 197 8 23 15 73 15 110 0 37 -7 87 -15 110 -11 32 -15 90 -15
239 0 183 -2 201 -25 266 -14 39 -25 92 -25 121 0 28 -11 84 -25 124 -15 45
-25 96 -25 131 0 41 -8 76 -25 115 -14 31 -25 71 -25 88 0 17 -11 54 -25 81
-13 28 -25 66 -25 85 0 19 -11 53 -25 75 -13 22 -25 56 -25 75 0 19 -11 53
-25 75 -13 22 -25 49 -25 61 0 12 -11 42 -25 68 -14 26 -25 53 -25 60 0 10
-87 197 -120 258 -5 9 -37 70 -71 135 -127 242 -334 510 -459 595 -25 17 -58
43 -75 59 -16 15 -62 42 -102 58 -67 29 -81 31 -191 31 l-119 0 -59 -39z
m2196 -4591 c19 -6 60 -28 90 -48 46 -31 62 -51 97 -117 37 -70 42 -88 43
-146 0 -54 -6 -77 -31 -128 -29 -58 -111 -150 -157 -175 -9 -6 -69 -10 -132
-10 -115 -1 -116 -1 -173 34 -32 19 -68 51 -81 70 -38 58 -96 178 -96 199 0
41 63 177 98 214 41 42 126 102 157 110 37 9 150 7 185 -3z"/>
</g>
</svg>
