<?xml version="1.0" standalone="no"?>
<!DOCTYPE svg PUBLIC "-//W3C//DTD SVG 20010904//EN"
 "http://www.w3.org/TR/2001/REC-SVG-20010904/DTD/svg10.dtd">
<svg version="1.0" xmlns="http://www.w3.org/2000/svg"
 width="554.000000pt" height="554.000000pt" viewBox="0 0 554.000000 554.000000"
 preserveAspectRatio="xMidYMid meet">

<g transform="translate(0.000000,554.000000) scale(0.100000,-0.100000)"
fill="#000000" stroke="none">
<path d="M0 2770 l0 -2770 2770 0 2770 0 0 2770 0 2770 -2770 0 -2770 0 0
-2770z m3417 2073 c84 -40 201 -178 275 -328 76 -151 151 -389 179 -570 7 -44
13 -147 13 -230 0 -157 -13 -235 -53 -312 l-19 -38 132 -68 c362 -189 645
-448 702 -646 15 -49 15 -57 0 -87 -20 -43 -96 -82 -176 -91 l-61 -6 43 -25
c307 -179 658 -472 658 -551 0 -34 -51 -27 -217 33 -744 265 -1529 295 -2273
85 -651 -184 -1274 -526 -1800 -986 -41 -36 -140 -127 -218 -202 -79 -75 -151
-136 -160 -136 -30 0 -16 85 34 213 114 287 308 680 494 998 74 127 80 140 63
149 -10 5 -39 31 -64 56 -149 149 -105 396 88 491 115 56 234 42 336 -40 47
-38 115 -47 291 -39 337 14 705 157 1036 401 94 69 316 282 339 324 11 21 7
24 -81 66 -420 201 -831 660 -793 886 43 257 556 111 987 -280 l77 -71 -15 48
c-87 280 -116 557 -78 740 20 99 47 154 95 198 33 29 46 35 85 35 25 0 62 -7
81 -17z"/>
<path d="M4005 3006 c-53 -57 -51 -133 5 -180 90 -75 218 -11 207 104 -4 35
-13 51 -41 77 -31 28 -43 33 -87 33 -46 0 -55 -4 -84 -34z"/>
</g>
</svg>
